<svg xmlns="http://www.w3.org/2000/svg" width="512" height="512" viewBox="0 0 512 512">
  <metadata><?xpacket begin="﻿" id="W5M0MpCehiHzreSzNTczkc9d"?>
<x:xmpmeta xmlns:x="adobe:ns:meta/" x:xmptk="Adobe XMP Core 5.6-c142 79.160924, 2017/07/13-01:06:39        ">
   <rdf:RDF xmlns:rdf="http://www.w3.org/1999/02/22-rdf-syntax-ns#">
      <rdf:Description rdf:about=""/>
   </rdf:RDF>
</x:xmpmeta>
                                                                                                    
                                                                                                    
                                                                                                    
                                                                                                    
                                                                                                    
                                                                                                    
                                                                                                    
                                                                                                    
                                                                                                    
                                                                                                    
                                                                                                    
                                                                                                    
                                                                                                    
                                                                                                    
                                                                                                    
                                                                                                    
                                                                                                    
                                                                                                    
                                                                                                    
                                                                                                    
                           
<?xpacket end="w"?></metadata>
<defs>
    <style>
      .cls-1, .cls-2, .cls-4 {
        fill: none;
      }

      .cls-1, .cls-2, .cls-4, .cls-7 {
        stroke: #19169a;
      }

      .cls-1, .cls-4, .cls-7 {
        stroke-linecap: round;
        stroke-linejoin: round;
        stroke-width: 10px;
      }

      .cls-2 {
        stroke-width: 6.99px;
      }

      .cls-2, .cls-4, .cls-5, .cls-6, .cls-7, .cls-8, .cls-9 {
        fill-rule: evenodd;
      }

      .cls-3, .cls-6, .cls-8, .cls-9 {
        fill: #19169a;
      }

      .cls-5, .cls-7 {
        fill: #fff;
      }

      .cls-8 {
        opacity: 0.8;
      }

      .cls-9 {
        opacity: 0.7;
      }
    </style>
  </defs>
  <circle class="cls-1" cx="150" cy="466" r="18"/>
  <circle id="Ellipse_1_copy" data-name="Ellipse 1 copy" class="cls-1" cx="324" cy="466" r="18"/>
  <path class="cls-2" d="M118,394s14.28-15.422,153-15,151.605,14,151.605,14"/>
  <circle id="Ellipse_1_copy_2" data-name="Ellipse 1 copy 2" class="cls-3" cx="33" cy="162" r="13"/>
  <path class="cls-4" d="M129,426c23.385,14.154,204.615,10.462,228,0s112-201.385,82-226-319.077-23.431-340-.661S105.615,411.846,129,426Z"/>
  <path class="cls-5" d="M455,456l-39-40-30,16-47-92,100,24-7,30,50,23Z"/>
  <path class="cls-6" d="M103,199.339s7.719-19.4-37-32.339-42-13-42-13l-1,7s47.873,13.661,60,26,20,18,20,18v-5.661Z"/>
  <path class="cls-7" d="M455.893,447.4l19.73-26.774-50.868-22.606,7.57-28.347-82.987-21.3,42.111,75.143,25.978-15.445Z"/>
  <path class="cls-8" d="M377.009,341.363l-10.2-4.435,18.062-40.81,10.2,4.436Z"/>
  <path id="Shape_4_copy" data-name="Shape 4 copy" class="cls-6" d="M353.958,332.973l-9.517,5.763-36.78-45.218,9.517-5.763Z"/>
  <path id="Shape_4_copy_2" data-name="Shape 4 copy 2" class="cls-6" d="M337.523,352.167L334.4,362.841,278.929,348.9l3.125-10.675Z"/>
  <path id="Shape_4_copy_3" data-name="Shape 4 copy 3" class="cls-9" d="M354.583,378.515l7.467,8.245-26.88,27.151-7.467-8.244Z"/>
  <path class="cls-6" d="M416.24,404.844L455.4,443.206l16.685-22.374L422.4,398.246Z"/>
</svg>
